**ABCDEFGHIJKLMNOPQRSTUVWXYZabcdefghijklmnopqrstuvwxyz**************************
**PARASOLID !"#$%&'()*+,-./:;<=>?@[\]^_`{|}~0123456789**************************
**PART1;
MC=AMD64;
MC_MODEL=Intel64 Family 6 Model 94 Stepping 3, GenuineIntel;
MC_ID=unknown;
OS=Windows_NT;
OS_RELEASE=unknown;
FRU=Parasolid Version 29.0, build 195, 12- 2-2016;
APPL=SOLIDWORKS 2017-2017033;
SITE=;
USER=unknown;
FORMAT=text;
GUISE=transmit;
KEY=makeProjectedPlanarWire;
FILE=makeProjectedPlanarWire.x_t;
DATE=Tue Nov 21 15:17:34 2017;
**PART2;
SCH=SCH_2900195_28101;
USFLD_SIZE=0;
**PART3;
**END_OF_HEADER*****************************************************************
T51 : TRANSMIT FILE created by modeller version 290019523 SCH_2900195_28101_1300
6203 0 12 33 CCCCCCI4 mesh1006 0 I8 polyline1008 0 CCCCCCCDI5 owner1040 0 CCCCCC
I13 boundary_mesh1006 0 I17 boundary_polyline1008 0 CCCA16 index_map_offset0 0 1
 dA9 index_map82 0 A17 node_id_index_map82 0 A20 schema_embedding_map82 0 A5 chi
ld12 0 A14 lowest_node_id0 0 1 dZ1 138 0 2 0 0 0 0 0 0 1e3 1e-8 0 3 0 1 0 3 1 4
 5 6 7 0 0 8 9 10 0 0 0 0 0 0 70 11 CI9 list_type0 0 1 uI10 notransmit0 0 1 lCCC
DCCDI12 finger_index0 0 1 dI12 finger_block1012 0 CZ2 0 4 T1 0 0 1 20 1 11 11 13
 255 4 119 0 1 0 12 0 0 8 12 50 255 5 2 0 12 0 0 0 +-.01655 .002 202679045258887
e-32 0 -1 0 0 0 -1 31 255 6 64 0 9 13 0 0 +16306400674182e-29 .002 -.00955 0 1 0
 0 0 1 .0016 29 255 7 112 0 10 14 0 -.01655 .002 -.003625 19 8 CCCCCCCA5 owner12
 0 Z8 118 0 1 0 0 4 V0 16 255 9 63 0 ?15 0 16 6 0 0 1 18 255 10 110 0 17 0 18 7
 ?1 17 255 17 0 0 0 0 10 19 20 0 21 -18 18 107 0 22 10 23 14 ?1 17 22 0 24 21 25
 18 26 27 0 28 +18 23 104 0 25 18 29 30 ?1 29 14 109 0 18 30 7 -.0125 .002 -.003
625 29 30 106 0 23 31 14 -.0065 .002 -.009625 29 31 103 0 29 32 30 -.0065 .002 -
.0189 18 29 101 0 33 23 34 31 ?1 29 32 100 0 34 35 31 .0065 .002 -.0189 18 34 98
 0 36 29 37 32 ?1 29 35 97 0 37 38 32 .0065 .002 -.009625 18 37 95 0 39 34 40 35
 ?1 29 38 94 0 40 41 35 .0125 .002 -.003625 18 40 92 0 42 37 43 38 ?1 29 41 91 0
 43 44 38 .01655 .002 -.003625 18 43 89 0 45 40 46 41 ?1 29 44 88 0 46 47 41 .01
655 .002 .003625 18 46 86 0 48 43 49 44 ?1 29 47 85 0 49 50 44 .009625 .002 .003
624999999999945 18 49 83 0 51 46 52 47 ?1 29 50 82 0 52 53 47 .003625 .002 .0096
2500000000026 18 52 80 0 54 49 55 50 ?1 29 53 79 0 55 56 50 .00362500000000028 .
002 .01655 18 55 77 0 57 52 58 53 ?1 29 56 76 0 58 59 53 -.00362499999999972 .00
2 .01655 18 58 74 0 60 55 61 56 ?1 29 59 73 0 61 62 56 -.00362499999999984 .002
 .009625 18 61 71 0 63 58 64 59 ?1 29 62 70 0 64 65 59 -.00962499999999988 .002
 .003625 18 64 68 0 66 61 67 62 ?1 29 65 67 0 67 0 62 -.01655 .002 .003625 18 67
 65 0 19 64 0 65 ?1 17 19 0 24 66 21 67 17 20 0 68 +15 255 24 5 0 19 12 69 17 66
 0 24 63 19 64 68 70 0 71 +17 21 0 24 19 22 10 28 72 0 0 +16 20 15 0 ?19 70 0 73
 0 0 1 17 68 0 0 0 0 67 66 70 0 0 -16 70 17 0 ?66 74 20 75 0 0 1 16 74 19 0 ?63
 76 70 77 0 0 1 30 255 75 18 0 70 73 77 0 +-.01655 .002 .003625 1 0 -62625396244
6491e-31 31 73 16 0 20 0 75 0 +-.01655 .002 202679045258887e-32 0 1 0 0 0 -1 .00
3625 31 77 20 0 74 75 78 0 +-.00962499999999984 .002 .009625 0 -1 0 0 0 1 .006 3
0 78 22 0 76 77 79 0 +-.00362499999999972 .002 .01655 169714823822999e-28 0 1 16
 76 21 0 ?60 80 74 78 0 0 1 31 79 24 0 80 78 81 0 +281025203108243e-30 .002 .016
55 0 1 0 0 0 1 .003625 16 80 23 0 ?57 82 76 79 0 0 1 30 81 26 0 82 79 83 0 +.003
62500000000028 .002 .01655 -4283577103134265e-29 0 -1 16 82 25 0 ?54 84 80 81 0
 0 1 31 83 28 0 84 81 85 0 +.009625 .002 .009625 0 -1 0 0 0 1 .006 16 84 27 0 ?5
1 86 82 83 0 0 1 30 85 30 0 86 83 87 0 +.01655 .002 .003625 1 0 11272571324037e-
28 16 86 29 0 ?48 88 84 85 0 0 1 31 87 32 0 88 85 89 0 +.01655 .002 -83815504032
7197e-32 0 1 0 0 0 1 .003625 16 88 31 0 ?45 90 86 87 0 0 1 30 89 34 0 90 87 91 0
 +.01655 .002 -.003625 -1 0 -535408480239761e-30 16 90 33 0 ?42 92 88 89 0 0 1 3
1 91 36 0 92 89 93 0 +.0125 .002 -.009625 0 -1 0 0 0 -1 .006 16 92 35 0 ?39 94 9
0 91 0 0 1 30 93 38 0 94 91 95 0 +.0065 .002 -.009625 1870321806983085e-31 0 -1
 16 94 37 0 ?36 96 92 93 0 0 1 30 95 40 0 96 93 97 0 +-.0065 .002 -.0189 -1 0 0
 16 96 39 0 ?33 98 94 95 0 0 1 30 97 42 0 98 95 99 0 +-.0065 .002 -.009625 -9351
60903491544e-31 0 1 16 98 41 0 ?25 27 96 97 0 0 1 31 99 44 0 27 97 100 0 +-.0125
 .002 -.009625 0 -1 0 0 0 -1 .006 16 27 43 0 ?22 72 98 99 0 0 1 30 100 46 0 72 9
9 101 0 +-.01655 .002 -.003625 -1 0 1070816960479522e-31 16 72 45 0 ?21 102 27 1
00 0 0 1 31 101 48 0 102 100 103 0 +0 .002 0 0 1 0 0 0 1 .005 16 102 47 0 ?104 1
05 72 101 0 0 1 31 103 50 0 105 101 106 0 +-.00955 .002 1169537693185722e-33 0 1
 0 0 0 1 .0016 16 105 49 0 ?107 108 102 103 0 0 1 31 106 52 0 108 103 109 0 +-.0
1655 .002 202679045258887e-32 0 1 0 0 0 1 .0016 16 108 51 0 ?110 111 105 106 0 0
 1 31 109 54 0 111 106 112 0 +.00955 .002 -49019944727331e-31 0 1 0 0 0 -1 .0016
 16 111 53 0 ?113 114 108 109 0 0 1 31 112 56 0 114 109 115 0 +.01655 .002 -8381
55040327197e-32 0 1 0 0 0 -1 .0016 16 114 55 0 ?116 117 111 112 0 0 1 31 115 58
 0 117 112 118 0 +16306400674182e-29 .002 .00955 0 1 0 0 0 -1 .0016 16 117 57 0
 ?119 120 114 115 0 0 1 31 118 60 0 120 115 13 0 +281025203108243e-30 .002 .0165
5 0 1 0 0 0 -1 .0016 16 120 59 0 ?121 16 117 118 0 0 1 31 13 62 0 16 118 6 0 +28
1025203108243e-30 .002 -.01655 0 1 0 0 0 1 .0016 16 16 61 0 ?122 9 120 13 0 0 1
 17 122 0 0 0 0 0 123 16 0 0 +17 123 0 124 123 123 0 122 16 0 0 -15 124 13 0 123
 12 125 14 255 12 1 126 ?0 0 24 4 5 -0 0 0 0 4 15 125 14 0 127 12 0 17 127 0 125
 127 127 0 15 9 0 0 -17 15 0 0 0 0 0 127 9 0 0 +81 255 1 126 138 128 12 0 0 0 0
 129 80 255 1 128 130 131 9000 1 1 1 1 1 1 1 1 0 FFFFTFTFFFFFFF1 82 255 1 129 -1
577058198 79 255 14 131 SWEntUnchanged17 121 0 0 0 0 0 132 120 0 0 +17 132 0 133
 132 132 0 121 120 0 0 -15 133 12 0 132 12 124 17 119 0 0 0 0 0 134 117 0 0 +17
 134 0 135 134 134 0 119 117 0 0 -15 135 11 0 134 12 133 17 116 0 0 0 0 0 136 11
4 0 0 +17 136 0 137 136 136 0 116 114 0 0 -15 137 10 0 136 12 135 17 113 0 0 0 0
 0 138 111 0 0 +17 138 0 139 138 138 0 113 111 0 0 -15 139 9 0 138 12 137 17 110
 0 0 0 0 0 140 108 0 0 +17 140 0 141 140 140 0 110 108 0 0 -15 141 8 0 140 12 13
9 17 107 0 0 0 0 0 142 105 0 0 +17 142 0 143 142 142 0 107 105 0 0 -15 143 7 0 1
42 12 141 17 104 0 0 0 0 0 144 102 0 0 +17 144 0 69 144 144 0 104 102 0 0 -15 69
 6 0 144 12 143 17 25 0 24 22 33 23 145 98 0 26 +17 33 0 24 25 36 29 146 96 0 14
5 +17 145 0 0 0 0 29 25 98 0 0 -17 26 0 0 0 0 23 22 27 0 0 -17 36 0 24 33 39 34
 147 94 0 146 +17 146 0 0 0 0 34 33 96 0 0 -17 39 0 24 36 42 37 148 92 0 147 +17
 147 0 0 0 0 37 36 94 0 0 -17 42 0 24 39 45 40 149 90 0 148 +17 148 0 0 0 0 40 3
9 92 0 0 -17 45 0 24 42 48 43 150 88 0 149 +17 149 0 0 0 0 43 42 90 0 0 -17 48 0
 24 45 51 46 151 86 0 150 +17 150 0 0 0 0 46 45 88 0 0 -17 51 0 24 48 54 49 152
 84 0 151 +17 151 0 0 0 0 49 48 86 0 0 -17 54 0 24 51 57 52 153 82 0 152 +17 152
 0 0 0 0 52 51 84 0 0 -17 57 0 24 54 60 55 154 80 0 153 +17 153 0 0 0 0 55 54 82
 0 0 -17 60 0 24 57 63 58 155 76 0 154 +17 154 0 0 0 0 58 57 80 0 0 -17 63 0 24
 60 66 61 71 74 0 155 +17 155 0 0 0 0 61 60 76 0 0 -17 71 0 0 0 0 64 63 74 0 0 -
17 28 0 0 0 0 18 21 72 0 0 -74 4 CI16 index_map_offset0 0 1 dCCZ20 11 1 0 0 126
 0 0 0 0 0 0 0 0 0 0 0 0 0 0 0 0 0 0 0 1 0 
